<svg xmlns="http://www.w3.org/2000/svg" width="64" height="64" viewBox="0 0 64 64" fill="none" role="img" aria-label="Character badge">
  <circle cx="32" cy="32" r="30" fill="#fff" stroke="#000" stroke-width="3"/>

  <g stroke="#000" stroke-width="2" stroke-linejoin="round" stroke-linecap="round">
    <!-- Base: head + shoulders -->
    <g fill="#FBC02D">
      <circle cx="32" cy="26" r="9"/>
      <path d="M16 50
               C18.5 41 25 36.5 32 36.5
               C39 36.5 45.5 41 48 50
               Z"/>
    </g>

    <!-- Shadow (right side) -->
    <g fill="#F9A825">
      <path d="M32 17
               C37 17 41 21 41 26
               C41 31 37 35 32 35
               Z"/>
      <path d="M32 36.5
               C39 36.5 45.5 41 48 50
               H32 Z"/>
    </g>

    <!-- Highlight -->
    <g fill="#fff" stroke="none">
      <path d="M25.2 24.2
               C25.8 21 28.5 19 31.4 19.2
               C30.6 22.4 28 24.2 25.2 24.2 Z"/>
      <path d="M18.8 46
               C20.8 41.8 25 39.2 29.5 39.2
               C28.7 43 24.4 45.9 19.6 46.2 Z"/>
    </g>
  </g>
</svg>
