<svg xmlns="http://www.w3.org/2000/svg" width="64" height="64"
     viewBox="0 0 64 64" fill="none" role="img" aria-label="CHA badge">
  <circle cx="32" cy="32" r="30" fill="#fff" stroke="#000" stroke-width="3"/>

  <g stroke="#000" stroke-width="2" stroke-linejoin="round" stroke-linecap="round" fill="#7B1FA2">
    <!-- Mask shape -->
    <path d="M20 20
             C24 18 28 17 32 17
             C36 17 40 18 44 20
             C46 28 46 38 40 44
             C37 47 35 49 32 49
             C29 49 27 47 24 44
             C18 38 18 28 20 20 Z"/>

    <!-- Eye holes (cutouts) -->
    <path d="M25.5 30
             C27 27.5 30 27.5 31.5 30
             C30 32.5 27 32.5 25.5 30 Z"
          fill="#fff"/>
    <path d="M32.5 30
             C34 27.5 37 27.5 38.5 30
             C37 32.5 34 32.5 32.5 30 Z"
          fill="#fff"/>

    <!-- Smile line -->
    <path d="M26 40
             C28.5 42.5 30.5 43.5 32 43.5
             C33.5 43.5 35.5 42.5 38 40" fill="none"/>
  </g>
</svg>
