<svg xmlns="http://www.w3.org/2000/svg" width="64" height="64"
     viewBox="0 0 64 64" fill="none" role="img" aria-label="DEX badge">
  <!-- Outer badge -->
  <circle cx="32" cy="32" r="30" fill="#fff" stroke="#000" stroke-width="3"/>

  <!-- Boot -->
  <g stroke="#000" stroke-width="2" stroke-linejoin="round" stroke-linecap="round" fill="#2E7D32">
    <!-- Boot upper + heel -->
    <path d="M22 18
             H34
             C36 18 37 19.5 37 21.5
             V34
             C37 36 35.8 37.4 34 38
             L29 39.5
             C26.5 40.5 24.5 41 22 41
             Z"/>

    <!-- Boot toe + sole -->
    <path d="M22 41
             C28 41 31 43 36 43
             C42 43 47 41 50 41
             V46
             C46 48.2 40.2 49.5 34.5 49.5
             C28.8 49.5 23.5 48.1 19 46.5
             V42.5
             C19 41.7 19.7 41 20.5 41
             Z"/>

    <!-- Cuff -->
    <rect x="23.5" y="15" width="11" height="5" rx="2"/>

    <!-- Lace holes -->
    <g fill="none">
      <circle cx="27" cy="25" r="0.9"/>
      <circle cx="30" cy="27" r="0.9"/>
      <circle cx="27" cy="29" r="0.9"/>
      <circle cx="30" cy="31" r="0.9"/>
    </g>

    <!-- Laces -->
    <g fill="none">
      <path d="M27.6 25.6 L29.4 26.8"/>
      <path d="M30.4 27.6 L27.6 28.6"/>
      <path d="M27.6 29.6 L29.4 30.8"/>
    </g>

    <!-- Sole tread line -->
    <g fill="none">
      <path d="M20.5 46.2 C25.5 47.8 30.5 48.6 34.5 48.6
               C39.5 48.6 44.5 47.6 48.8 46.0"/>
    </g>
  </g>
</svg>
