<svg xmlns="http://www.w3.org/2000/svg" width="64" height="64" viewBox="0 0 64 64" fill="none" role="img" aria-label="HP badge">
  <circle cx="32" cy="32" r="30" fill="#fff" stroke="#000" stroke-width="3"/>

  <g stroke="#000" stroke-width="2" stroke-linejoin="round" stroke-linecap="round">
    <!-- Base heart -->
    <path fill="#CC2C2D" d="M32 50
      C22 43 16 37 16 29
      C16 23.5 20.2 19 25.6 19
      C28.9 19 31.2 20.6 32.8 22.8
      C34.4 20.6 36.7 19 40 19
      C45.4 19 49.6 23.5 49.6 29
      C49.6 37 43.8 43 32 50 Z"/>

    <!-- Shadow (bottom/right) -->
    <path fill="#A92223" d="M49.6 29
      C49.6 37 43.8 43 32 50
      V27.2
      C34.4 24.8 36.8 23.2 40 23.2
      C45.2 23.2 49.6 26 49.6 29 Z"/>

    <!-- Highlight -->
    <path fill="#fff" stroke="none" d="M20.6 28.2
      C20.8 24.8 23.4 22.4 26.6 22.4
      C28.4 22.4 29.8 23 31 24.1
      C30.2 27.4 26.8 29.3 22 29.2 Z"/>
  </g>
</svg>
