<svg xmlns="http://www.w3.org/2000/svg" width="64" height="64"
     viewBox="0 0 64 64" fill="none" role="img" aria-label="INT badge">
  <circle cx="32" cy="32" r="30" fill="#fff" stroke="#000" stroke-width="3"/>

  <g stroke="#000" stroke-width="2" stroke-linejoin="round" stroke-linecap="round" fill="#1976D2">
    <!-- Book cover -->
    <path d="M20 20
             H31
             C33 20 34 21 34 23
             V46
             C31.5 45 29 44.5 26 44.5
             H20
             Z"/>
    <path d="M44 20
             H33
             C31 20 30 21 30 23
             V46
             C32.5 45 35 44.5 38 44.5
             H44
             Z"/>

    <!-- Spine + center crease -->
    <path d="M32 20 V47" fill="none"/>

    <!-- Page lines -->
    <g fill="none">
      <path d="M23 26 H29"/>
      <path d="M23 30 H29"/>
      <path d="M23 34 H29"/>
      <path d="M35 26 H41"/>
      <path d="M35 30 H41"/>
      <path d="M35 34 H41"/>
    </g>
  </g>
</svg>
