<svg xmlns="http://www.w3.org/2000/svg" width="64" height="64" viewBox="0 0 64 64" fill="none" role="img" aria-label="Inventory badge">
  <circle cx="32" cy="32" r="30" fill="#fff" stroke="#000" stroke-width="3"/>

  <g stroke="#000" stroke-width="2" stroke-linejoin="round" stroke-linecap="round">
    <!-- Base bag -->
    <path fill="#8D6E63" d="M24 18
      C24.5 22 22 24.5 20 26.5
      C18.5 28 18 29.5 18.5 31.5
      C16.8 34.8 16 38.7 16 42
      C16 49 21.5 52 32 52
      C42.5 52 48 49 48 42
      C48 38.7 47.2 34.8 45.5 31.5
      C46 29.5 45.5 28 44 26.5
      C42 24.5 39.5 22 40 18
      C37.5 20 35 21.2 32 21.2
      C29 21.2 26.5 20 24 18 Z"/>

    <!-- Tie / cinch -->
    <path fill="#A1887F" d="M22 28
      C26 30 29 31 32 31
      C35 31 38 30 42 28
      C41 33 23 33 22 28 Z"/>

    <!-- Shadow (right/lower) -->
    <path fill="#5D4037" d="M32 21.2
      C35 21.2 37.5 20 40 18
      C39.5 22 42 24.5 44 26.5
      C45.5 28 46 29.5 45.5 31.5
      C47.2 34.8 48 38.7 48 42
      C48 49 42.5 52 32 52
      Z"/>

    <!-- Stitch line -->
    <path fill="none" d="M22 38 C26 40 29.5 41 32 41 C34.5 41 38 40 42 38"/>

    <!-- Highlight -->
    <g fill="#fff" stroke="none">
      <path d="M20.8 31.8
               C20.2 29 22.2 27 24.8 26.4
               C24.6 29.6 22.8 31.4 20.8 31.8 Z"/>
      <path d="M19.2 42
               C19.8 37.8 22.8 35.4 27 34.8
               C26.4 39.2 23.4 41.6 19.2 42 Z"/>
    </g>
  </g>
</svg>
